<svg width="24" height="24" viewBox="0 0 24 24" fill="none" xmlns="http://www.w3.org/2000/svg">
<g clip-path="url(#clip0)">
<path d="M9.00143 12.8019C9.00143 12.5112 8.76565 12.2757 8.47474 12.2757H6.63676C6.34618 12.2757 6.11035 12.5112 6.11035 12.8019V14.6396C6.11035 14.9307 6.34618 15.1663 6.63676 15.1663H8.47474C8.76565 15.1663 9.00143 14.9307 9.00143 14.6396V12.8019Z" fill="white"/>
<path d="M13.5949 12.8019C13.5949 12.5112 13.3591 12.2757 13.0687 12.2757H11.2305C10.9399 12.2757 10.7041 12.5112 10.7041 12.8019V14.6396C10.7041 14.9307 10.9399 15.1663 11.2305 15.1663H13.0687C13.3591 15.1663 13.5949 14.9307 13.5949 14.6396V12.8019Z" fill="white"/>
<path d="M18.1884 12.8019C18.1884 12.5112 17.9526 12.2757 17.662 12.2757H15.8241C15.5331 12.2757 15.2974 12.5112 15.2974 12.8019V14.6396C15.2974 14.9307 15.5331 15.1663 15.8241 15.1663H17.662C17.9526 15.1663 18.1884 14.9307 18.1884 14.6396V12.8019Z" fill="white"/>
<path d="M9.00143 17.3957C9.00143 17.1046 8.76565 16.8693 8.47474 16.8693H6.63676C6.34618 16.8693 6.11035 17.1046 6.11035 17.3957V19.2331C6.11035 19.524 6.34618 19.7595 6.63676 19.7595H8.47474C8.76565 19.7595 9.00143 19.524 9.00143 19.2331V17.3957Z" fill="white"/>
<path d="M13.5949 17.3957C13.5949 17.1046 13.3591 16.8693 13.0687 16.8693H11.2305C10.9399 16.8693 10.7041 17.1046 10.7041 17.3957V19.2331C10.7041 19.524 10.9399 19.7595 11.2305 19.7595H13.0687C13.3591 19.7595 13.5949 19.524 13.5949 19.2331V17.3957Z" fill="white"/>
<path d="M18.1884 17.3957C18.1884 17.1046 17.9526 16.8693 17.6623 16.8693H15.8241C15.5331 16.8693 15.2974 17.1046 15.2974 17.3957V19.2331C15.2974 19.524 15.5331 19.7595 15.8241 19.7595H17.6623C17.9526 19.7595 18.1884 19.524 18.1884 19.2331V17.3957Z" fill="white"/>
<path d="M21.4748 2.58377V5.39076C21.4748 6.65949 20.4456 7.68189 19.177 7.68189H17.7275C16.4589 7.68189 15.416 6.65949 15.416 5.39076V2.57369H8.88267V5.39076C8.88267 6.65949 7.83983 7.68189 6.57139 7.68189H5.12159C3.8531 7.68189 2.8239 6.65949 2.8239 5.39076V2.58377C1.71522 2.61719 0.804199 3.53458 0.804199 4.66218V21.1125C0.804199 22.2613 1.73533 23.2048 2.88413 23.2048H21.4145C22.5616 23.2048 23.4945 22.2593 23.4945 21.1125V4.66218C23.4945 3.53458 22.5835 2.61719 21.4748 2.58377ZM20.8016 20.0881C20.8016 20.5845 20.399 20.9873 19.9024 20.9873H4.35669C3.86004 20.9873 3.45751 20.5845 3.45751 20.0881V11.5909C3.45751 11.0942 3.85999 10.6915 4.35669 10.6915H19.9023C20.399 10.6915 20.8015 11.0942 20.8015 11.5909L20.8016 20.0881Z" fill="white"/>
<path d="M5.11666 6.17704H6.55044C6.98563 6.17704 7.33849 5.82471 7.33849 5.38951V0.787811C7.33849 0.352573 6.98563 0 6.55044 0H5.11666C4.68142 0 4.32861 0.352573 4.32861 0.787811V5.38951C4.32861 5.82471 4.68142 6.17704 5.11666 6.17704Z" fill="white"/>
<path d="M17.7089 6.17704H19.1427C19.5776 6.17704 19.9304 5.82471 19.9304 5.38951V0.787811C19.9305 0.352573 19.5776 0 19.1427 0H17.7089C17.2738 0 16.9209 0.352573 16.9209 0.787811V5.38951C16.9209 5.82471 17.2738 6.17704 17.7089 6.17704Z" fill="white"/>
</g>
<defs>
<clipPath id="clip0">
<rect x="0.546875" width="23.2047" height="23.2047" fill="white"/>
</clipPath>
</defs>
</svg>
