<svg width="26" height="18" viewBox="0 0 26 18" fill="none" xmlns="http://www.w3.org/2000/svg">
<path d="M23.0867 17.5223C23.6431 17.5223 24.1251 17.3567 24.5349 17.0298L17.5228 10.7097C17.3546 10.8183 17.1915 10.9239 17.0375 11.0243C16.5127 11.3727 16.0869 11.6447 15.7598 11.8395C15.4328 12.0348 14.9978 12.2338 14.4547 12.4371C13.9112 12.6405 13.4049 12.7419 12.9353 12.7419H12.9215H12.9078C12.4381 12.7419 11.9318 12.6406 11.3884 12.4371C10.845 12.2338 10.4099 12.0348 10.0832 11.8395C9.75624 11.6447 9.33057 11.3728 8.80555 11.0243C8.65924 10.9276 8.49698 10.8216 8.32155 10.708L1.30811 17.0298C1.71787 17.3567 2.20025 17.5223 2.75655 17.5223H23.0867Z" fill="white"/>
<path d="M1.94198 6.73934C1.41727 6.42404 0.951966 6.06293 0.546875 5.65618V15.2721L6.72731 9.70159C5.49087 8.92356 3.89778 7.93728 1.94198 6.73934Z" fill="white"/>
<path d="M23.9194 6.73942C22.0382 7.88715 20.4393 8.8752 19.1226 9.70412L25.3005 15.2731V5.65618C24.9044 6.05478 24.4441 6.41567 23.9194 6.73942Z" fill="white"/>
<path d="M23.0867 0H2.75656C2.04731 0 1.50202 0.215928 1.12002 0.647337C0.737715 1.07895 0.546875 1.61873 0.546875 2.26607C0.546875 2.78895 0.80013 3.35551 1.30642 3.9659C1.8127 4.57605 2.35143 5.0553 2.92233 5.4039C3.2353 5.60326 4.17912 6.19481 5.75379 7.17836C6.60383 7.70943 7.34306 8.17232 7.97831 8.57176C8.51978 8.9119 8.98674 9.20646 9.37229 9.45091C9.41655 9.4789 9.48615 9.52379 9.57854 9.58334C9.67807 9.64779 9.80402 9.72959 9.95941 9.83074C10.2586 10.0258 10.5072 10.1836 10.7052 10.304C10.9029 10.4246 11.1425 10.5592 11.4235 10.7087C11.7043 10.858 11.9691 10.9702 12.2177 11.0449C12.4663 11.1195 12.6965 11.1569 12.9082 11.1569H12.922H12.9357C13.1474 11.1569 13.3776 11.1195 13.6263 11.0449C13.8748 10.9702 14.1395 10.8582 14.4205 10.7087C14.7012 10.5592 14.9405 10.4243 15.1388 10.304C15.3368 10.1836 15.5854 10.0259 15.8847 9.83074C16.0397 9.72959 16.1657 9.64775 16.2652 9.58354C16.3576 9.52375 16.4272 9.47914 16.4717 9.45091C16.7721 9.26249 17.2401 8.96914 17.8694 8.5752C19.0144 7.85794 20.7008 6.80225 22.9355 5.4039C23.6076 4.98068 24.1691 4.46995 24.6204 3.87244C25.0709 3.27493 25.2967 2.64817 25.2967 1.99237C25.2967 1.44445 25.0777 0.975604 24.6407 0.585111C24.2032 0.195105 23.6852 0 23.0867 0Z" fill="white"/>
</svg>
