<svg width="28" height="28" viewBox="0 0 28 28" fill="none" xmlns="http://www.w3.org/2000/svg">
<g clip-path="url(#clip0)">
<path d="M20.1301 0H7.71573C6.68147 0 5.83496 0.845712 5.83496 1.88077V25.9641C5.83496 26.9991 6.68147 27.8456 7.71573 27.8456H20.1301C21.1644 27.8456 22.0109 27.0007 22.0109 25.9649V1.88077C22.0109 0.845712 21.1644 0 20.1301 0ZM11.9371 1.35568H15.9087C16.0344 1.35568 16.1363 1.45752 16.1363 1.58402C16.1363 1.70972 16.0344 1.81156 15.9087 1.81156H11.9371C11.8114 1.81156 11.7096 1.70972 11.7096 1.58402C11.7096 1.45752 11.8114 1.35568 11.9371 1.35568ZM13.9229 26.9053C13.4034 26.9053 12.9825 26.4844 12.9825 25.9641C12.9825 25.4438 13.4034 25.0237 13.9229 25.0237C14.4424 25.0237 14.8633 25.4438 14.8633 25.9641C14.8633 26.4844 14.4424 26.9053 13.9229 26.9053ZM20.7021 24.3649H7.14371V2.98267H20.7021V24.3649Z" fill="white"/>
</g>
<defs>
<clipPath id="clip0">
<rect width="27.8456" height="27.8456" fill="white"/>
</clipPath>
</defs>
</svg>
