<svg width="26" height="25" viewBox="0 0 26 25" fill="none" xmlns="http://www.w3.org/2000/svg">
<g clip-path="url(#clip0)">
<path d="M12.9227 12.1052C15.6746 12.1052 17.9058 9.39538 17.9058 6.05263C17.9058 2.70981 17.1732 0 12.9227 0C8.6721 0 7.93945 2.70981 7.93945 6.05263C7.93945 9.39538 10.1706 12.1052 12.9227 12.1052Z" fill="white"/>
<path d="M3.51074 21.3468C3.5099 21.1429 3.50905 21.2893 3.51074 21.3468V21.3468Z" fill="white"/>
<path d="M22.3345 21.506C22.3371 21.4502 22.3354 21.1188 22.3345 21.506V21.506Z" fill="white"/>
<path d="M22.3239 21.1023C22.2316 15.2792 21.4711 13.6199 15.6514 12.5696C15.6514 12.5696 14.8322 13.6134 12.9228 13.6134C11.0134 13.6134 10.194 12.5696 10.194 12.5696C4.43787 13.6084 3.63111 15.2431 3.52503 20.9131C3.51633 21.3761 3.5123 21.4005 3.51074 21.3467C3.5111 21.4474 3.51152 21.6337 3.51152 21.9585C3.51152 21.9585 4.89705 24.7516 12.9228 24.7516C20.9484 24.7516 22.3341 21.9585 22.3341 21.9585C22.3341 21.7498 22.3343 21.6047 22.3345 21.506C22.3329 21.5392 22.3298 21.4748 22.3239 21.1023Z" fill="white"/>
</g>
<defs>
<clipPath id="clip0">
<rect x="0.546875" width="24.7517" height="24.7517" fill="white"/>
</clipPath>
</defs>
</svg>
